
      <svg data-logo="logo" xmlns="http://www.w3.org/2000/svg" viewBox="0 0 296.30999755859375 44.52">
        <g id="logogram" transform="
    translate(0, 1.7600000000000016)
    rotate(0 33.5 20.5)
    
  "><path d="M0.452637 20.81C0.452637 9.76427 9.40694 0.809967 20.4526 0.809967H46.7026C57.7484 0.809967 66.7026 9.76427 66.7026 20.81V40.81H20.4526C9.40694 40.81 0.452637 31.8557 0.452637 20.81Z" fill="#4845D2"/><path d="M46.7026 8.30997H20.4526C13.5491 8.30997 7.95264 13.9064 7.95264 20.81C7.95264 27.7135 13.5491 33.31 20.4526 33.31H46.7026C53.6062 33.31 59.2026 27.7135 59.2026 20.81C59.2026 13.9064 53.6062 8.30997 46.7026 8.30997Z" fill="#A5B4FC"/><path d="M20.4526 27.06C23.9044 27.06 26.7026 24.2617 26.7026 20.81C26.7026 17.3582 23.9044 14.56 20.4526 14.56C17.0009 14.56 14.2026 17.3582 14.2026 20.81C14.2026 24.2617 17.0009 27.06 20.4526 27.06Z" fill="black"/><path d="M17.9526 19.56C18.643 19.56 19.2026 19.0003 19.2026 18.31C19.2026 17.6196 18.643 17.06 17.9526 17.06C17.2623 17.06 16.7026 17.6196 16.7026 18.31C16.7026 19.0003 17.2623 19.56 17.9526 19.56Z" fill="white"/><path d="M47.9526 27.06C51.4044 27.06 54.2026 24.2617 54.2026 20.81C54.2026 17.3582 51.4044 14.56 47.9526 14.56C44.5009 14.56 41.7026 17.3582 41.7026 20.81C41.7026 24.2617 44.5009 27.06 47.9526 27.06Z" fill="black"/><path d="M45.4526 19.56C46.143 19.56 46.7026 19.0003 46.7026 18.31C46.7026 17.6196 46.143 17.06 45.4526 17.06C44.7623 17.06 44.2026 17.6196 44.2026 18.31C44.2026 19.0003 44.7623 19.56 45.4526 19.56Z" fill="white"/></g>
        <g id="logotype" transform="translate(73, 0.5)"><path fill="#000000" d="M19.48 34.24L19.48 34.24Q16.78 34.24 14.52 33.32Q12.27 32.39 10.62 30.69Q8.97 28.99 8.08 26.72Q7.19 24.45 7.19 21.71L7.19 21.71Q7.19 18.91 8.10 16.62Q9.01 14.33 10.67 12.67Q12.34 11.00 14.59 10.09Q16.85 9.18 19.48 9.18L19.48 9.18Q22.28 9.18 24.55 10.16Q26.83 11.14 28.44 12.95Q30.05 14.75 30.82 17.23L30.82 17.23L25.08 19.02Q24.34 16.64 22.89 15.61Q21.44 14.57 19.44 14.57L19.44 14.57Q17.59 14.57 16.19 15.45Q14.79 16.32 14.00 17.93Q13.21 19.54 13.21 21.71L13.21 21.71Q13.21 23.88 13.98 25.49Q14.75 27.11 16.15 28.00Q17.55 28.89 19.41 28.89L19.41 28.89Q21.54 28.89 23.01 27.77Q24.48 26.65 25.25 24.41L25.25 24.41L31.06 25.77Q30.36 28.40 28.70 30.31Q27.04 32.22 24.67 33.23Q22.31 34.24 19.48 34.24ZM42.16 34.24L42.16 34.24Q39.29 34.24 37.01 33.04Q34.74 31.83 33.42 29.55Q32.11 27.28 32.11 24.23L32.11 24.23Q32.11 21.16 33.44 18.91Q34.77 16.67 37.06 15.45Q39.36 14.22 42.23 14.22L42.23 14.22Q45.13 14.22 47.42 15.43Q49.72 16.64 51.05 18.90Q52.38 21.16 52.38 24.23L52.38 24.23Q52.38 27.28 51.01 29.55Q49.65 31.83 47.34 33.04Q45.03 34.24 42.16 34.24ZM42.16 29.13L42.16 29.13Q43.24 29.13 44.20 28.59Q45.17 28.05 45.76 26.96Q46.36 25.88 46.36 24.23L46.36 24.23Q46.36 22.55 45.76 21.49Q45.17 20.42 44.24 19.89Q43.31 19.37 42.23 19.37L42.23 19.37Q41.14 19.37 40.21 19.89Q39.29 20.42 38.71 21.49Q38.13 22.55 38.13 24.23L38.13 24.23Q38.13 25.88 38.67 26.96Q39.22 28.05 40.14 28.59Q41.07 29.13 42.16 29.13ZM67.64 31.02L67.64 31.02L67.64 14.47L73.55 14.47L73.55 34L70.61 34Q69.21 34 68.42 33.21Q67.64 32.42 67.64 31.02ZM61.65 34.24L61.65 34.24Q59.27 34.24 57.61 33.20Q55.95 32.15 55.07 30.25Q54.20 28.36 54.20 25.84L54.20 25.84L54.20 14.47L60.08 14.47L60.08 24.97Q60.08 27 61.11 28.12Q62.14 29.24 63.86 29.24L63.86 29.24Q65.05 29.24 65.89 28.64Q66.73 28.05 67.18 27Q67.64 25.95 67.64 24.62L67.64 24.62L68.44 25.63Q68.34 28.64 67.41 30.54Q66.48 32.42 64.98 33.34Q63.47 34.24 61.65 34.24ZM82.62 34L76.70 34L76.70 14.47L82.62 14.47L82.62 34ZM82.62 25.60L81.71 25.60L82.62 19.20Q83.25 16.92 84.82 15.61Q86.40 14.29 88.85 14.29L88.85 14.29L88.85 20.45Q88.46 20.38 88.11 20.35Q87.76 20.31 87.41 20.31L87.41 20.31Q86.12 20.31 85.03 20.93Q83.95 21.54 83.28 22.71Q82.62 23.88 82.62 25.60L82.62 25.60ZM98.02 34.24L98.02 34.24Q95.88 34.24 94.11 33.58Q92.35 32.91 91.16 31.71Q89.97 30.50 89.44 28.93L89.44 28.93L94.90 27.70Q95.15 28.71 95.97 29.29Q96.79 29.87 97.98 29.87L97.98 29.87Q99.14 29.87 99.77 29.40Q100.40 28.93 100.40 28.26L100.40 28.26Q100.40 27.45 99.63 27.05Q98.86 26.65 97.61 26.37Q96.37 26.09 95.01 25.77Q93.64 25.46 92.42 24.85Q91.19 24.23 90.42 23.15Q89.65 22.06 89.65 20.31L89.65 20.31Q89.65 18.63 90.58 17.27Q91.51 15.90 93.27 15.06Q95.04 14.22 97.60 14.22L97.60 14.22Q99.73 14.22 101.36 14.89Q102.99 15.55 104.05 16.73Q105.12 17.90 105.58 19.51L105.58 19.51L100.36 20.88Q100.15 19.82 99.42 19.23Q98.68 18.63 97.46 18.63L97.46 18.63Q96.34 18.63 95.78 19.05Q95.22 19.47 95.22 20.17L95.22 20.17Q95.22 20.95 95.99 21.38Q96.76 21.82 97.98 22.10Q99.21 22.38 100.57 22.75Q101.94 23.11 103.16 23.74Q104.39 24.38 105.16 25.49Q105.93 26.61 105.93 28.40L105.93 28.40Q105.93 30.08 104.96 31.41Q104.00 32.74 102.22 33.49Q100.43 34.24 98.02 34.24ZM117.58 34.24L117.58 34.24Q115.45 34.24 113.50 33.58Q111.56 32.91 110.07 31.64Q108.59 30.36 107.73 28.54Q106.87 26.72 106.87 24.38L106.87 24.38Q106.87 22.13 107.69 20.28Q108.52 18.42 109.93 17.06Q111.35 15.69 113.22 14.96Q115.10 14.22 117.20 14.22L117.20 14.22Q118.91 14.22 120.47 14.68Q122.03 15.13 123.27 16.01Q124.51 16.88 125.23 18.07Q125.95 19.27 125.95 20.73L125.95 20.73Q125.95 22.59 124.90 23.81Q123.85 25.04 122.15 25.74Q120.45 26.44 118.44 26.74Q116.43 27.04 114.47 27L114.47 27Q114.22 27 113.89 26.98Q113.56 26.96 113.28 26.95Q113.00 26.93 112.86 26.93L112.86 26.93Q113.07 27.73 113.75 28.38Q114.43 29.03 115.48 29.41Q116.53 29.80 117.65 29.80L117.65 29.80Q118.77 29.80 119.80 29.41Q120.84 29.03 121.68 28.43Q122.52 27.84 123.11 27.11L123.11 27.11L126.89 30.08Q125.84 31.48 124.34 32.41Q122.83 33.34 121.10 33.79Q119.37 34.24 117.58 34.24ZM114.50 23.11L114.50 23.11Q115.45 23.11 116.46 23.01Q117.48 22.91 118.33 22.64Q119.19 22.38 119.73 21.91Q120.28 21.43 120.28 20.70L120.28 20.70Q120.28 20.10 119.86 19.65Q119.44 19.20 118.74 18.95Q118.04 18.70 117.23 18.70L117.23 18.70Q115.83 18.70 114.78 19.37Q113.73 20.03 113.17 21.03Q112.61 22.03 112.54 23.04L112.54 23.04Q112.86 23.08 113.40 23.10Q113.94 23.11 114.50 23.11ZM128.47 34L128.47 9.43L144.39 9.43L144.39 14.15L134.38 14.15L134.38 19.44L141.91 19.44L141.91 24.02L134.38 24.02L134.38 34L128.47 34ZM154.19 34.24L154.19 34.24Q151.32 34.24 149.05 33.04Q146.77 31.83 145.46 29.55Q144.15 27.28 144.15 24.23L144.15 24.23Q144.15 21.16 145.48 18.91Q146.81 16.67 149.10 15.45Q151.39 14.22 154.26 14.22L154.26 14.22Q157.17 14.22 159.46 15.43Q161.75 16.64 163.08 18.90Q164.41 21.16 164.41 24.23L164.41 24.23Q164.41 27.28 163.05 29.55Q161.68 31.83 159.37 33.04Q157.06 34.24 154.19 34.24ZM154.19 29.13L154.19 29.13Q155.28 29.13 156.24 28.59Q157.20 28.05 157.80 26.96Q158.39 25.88 158.39 24.23L158.39 24.23Q158.39 22.55 157.80 21.49Q157.20 20.42 156.27 19.89Q155.35 19.37 154.26 19.37L154.26 19.37Q153.18 19.37 152.25 19.89Q151.32 20.42 150.74 21.49Q150.17 22.55 150.17 24.23L150.17 24.23Q150.17 25.88 150.71 26.96Q151.25 28.05 152.18 28.59Q153.11 29.13 154.19 29.13ZM172.29 34L166.37 34L166.37 14.47L172.29 14.47L172.29 34ZM172.29 25.60L171.38 25.60L172.29 19.20Q172.92 16.92 174.49 15.61Q176.07 14.29 178.52 14.29L178.52 14.29L178.52 20.45Q178.13 20.38 177.78 20.35Q177.43 20.31 177.08 20.31L177.08 20.31Q175.79 20.31 174.70 20.93Q173.62 21.54 172.95 22.71Q172.29 23.88 172.29 25.60L172.29 25.60ZM189.30 43.52L189.30 43.52Q186.95 43.52 184.85 42.82Q182.75 42.12 181.26 40.72Q179.78 39.32 179.22 37.22L179.22 37.22L184.33 35.44Q184.92 36.87 186.16 37.74Q187.41 38.62 189.09 38.62L189.09 38.62Q190.56 38.62 191.57 38.01Q192.59 37.40 193.11 36.26Q193.64 35.12 193.64 33.55L193.64 33.55L193.64 29.70Q192.94 31.83 191.31 33.04Q189.68 34.24 187.44 34.24L187.44 34.24Q184.89 34.24 182.98 32.91Q181.07 31.59 180.00 29.33Q178.94 27.07 178.94 24.23L178.94 24.23Q178.94 21.43 180.00 19.16Q181.07 16.88 182.98 15.55Q184.89 14.22 187.44 14.22L187.44 14.22Q189.68 14.22 191.31 15.43Q192.94 16.64 193.64 18.81L193.64 18.81L193.64 14.47L199.52 14.47L199.52 33.55Q199.52 35.51 198.92 37.31Q198.33 39.11 197.08 40.51Q195.84 41.91 193.92 42.72Q191.99 43.52 189.30 43.52ZM189.30 29.10L189.30 29.10Q190.49 29.10 191.47 28.52Q192.45 27.95 193.04 26.86Q193.64 25.77 193.64 24.23L193.64 24.23Q193.64 22.70 193.04 21.63Q192.45 20.56 191.47 19.96Q190.49 19.37 189.30 19.37L189.30 19.37Q188.14 19.37 187.16 19.96Q186.18 20.56 185.59 21.63Q184.99 22.70 184.99 24.23L184.99 24.23Q184.99 25.77 185.59 26.86Q186.18 27.95 187.16 28.52Q188.14 29.10 189.30 29.10ZM212.19 34.24L212.19 34.24Q210.05 34.24 208.11 33.58Q206.17 32.91 204.68 31.64Q203.19 30.36 202.33 28.54Q201.48 26.72 201.48 24.38L201.48 24.38Q201.48 22.13 202.30 20.28Q203.12 18.42 204.54 17.06Q205.96 15.69 207.83 14.96Q209.70 14.22 211.80 14.22L211.80 14.22Q213.52 14.22 215.07 14.68Q216.63 15.13 217.87 16.01Q219.12 16.88 219.83 18.07Q220.55 19.27 220.55 20.73L220.55 20.73Q220.55 22.59 219.50 23.81Q218.45 25.04 216.75 25.74Q215.06 26.44 213.04 26.74Q211.03 27.04 209.07 27L209.07 27Q208.83 27 208.49 26.98Q208.16 26.96 207.88 26.95Q207.60 26.93 207.46 26.93L207.46 26.93Q207.67 27.73 208.35 28.38Q209.04 29.03 210.09 29.41Q211.14 29.80 212.26 29.80L212.26 29.80Q213.38 29.80 214.41 29.41Q215.44 29.03 216.28 28.43Q217.12 27.84 217.72 27.11L217.72 27.11L221.50 30.08Q220.45 31.48 218.94 32.41Q217.44 33.34 215.70 33.79Q213.97 34.24 212.19 34.24ZM209.11 23.11L209.11 23.11Q210.05 23.11 211.07 23.01Q212.08 22.91 212.94 22.64Q213.80 22.38 214.34 21.91Q214.88 21.43 214.88 20.70L214.88 20.70Q214.88 20.10 214.46 19.65Q214.04 19.20 213.34 18.95Q212.64 18.70 211.84 18.70L211.84 18.70Q210.44 18.70 209.39 19.37Q208.34 20.03 207.78 21.03Q207.22 22.03 207.15 23.04L207.15 23.04Q207.46 23.08 208.00 23.10Q208.55 23.11 209.11 23.11Z"/></g>
        
      </svg>
    